<?xml version="1.0" ?><!DOCTYPE svg  PUBLIC '-//W3C//DTD SVG 1.1//EN'  'http://www.w3.org/Graphics/SVG/1.1/DTD/svg11.dtd'><svg enable-background="new 0 0 91 91" height="91px" id="Layer_1" version="1.1" viewBox="0 0 91 91" width="91px" xml:space="preserve" xmlns="http://www.w3.org/2000/svg" xmlns:xlink="http://www.w3.org/1999/xlink"><g><g><g><path d="M24.79,36.253c-0.01,0.303-0.189,0.574-0.469,0.715c-4.303,6.602-8.154,14.793-11.197,26.1     c4.068-7.451,10.408-15.066,19.5-20.678c7.854-4.848,18.747-4.068,27.501-3.436c5.836,0.416,10.869,0.773,12.758-0.746     C79.371,26.992,85.604,9.16,84.027,2.88c-8.789-1.627-32.902,3.691-48.134,19.816C32.042,26.771,28.278,31.031,24.79,36.253z" fill="#FAE58F"/><path d="M73.535,39.82c-2.553,1.598-7.447,1.246-13.529,0.809c-3.086-0.221-6.447-0.461-9.83-0.461     c-5.946,0-11.956,0.744-16.669,3.653C18.278,53.219,10.974,68.387,9.345,78.518c-0.012,0.078-0.035,0.154-0.07,0.225     c-0.242,0.518,0.092,1.238,0.418,1.75c1.885,2.984,7.805,6.387,9.021,6.393h0.002c0.611,0,2.061-2.021,2.924-3.232     c1.455-2.031,2.711-3.787,4.113-3.895c13.793-1.053,22.546-11.936,29.581-20.678c0.969-1.203,1.904-2.367,2.814-3.459     c-3.725-3.549-8.787-6.045-15.767-6.547c-0.461-0.035-0.811-0.438-0.777-0.898c0.035-0.463,0.438-0.826,0.9-0.779     c7.729,0.559,13.253,3.467,17.255,7.516c0.018,0.012,0.035,0.025,0.055,0.041c0.059,0.051,0.109,0.107,0.15,0.168     c7.533,7.799,9.578,19.682,10.885,27.291c0.242,1.4,0.461,2.682,0.686,3.773c3.58-5.412,11.377-21.008,9.518-33.695     C80.254,47.033,77.725,42.773,73.535,39.82z" fill="#F9BA8F"/><path d="M24.038,34.423c3.129-4.523,6.654-8.67,10.635-12.881c1.021-1.082,2.082-2.111,3.176-3.1     C25.29,15.722,11.239,23.75,6.839,27.82C15.024,26.591,21.136,28.945,24.038,34.423z" fill="#DABE92"/></g><g><path d="M73.023,13.908c-0.994,0-1.896-0.666-2.172-1.676c-0.33-1.209,0.402-2.461,1.609-2.791     c0.035-0.008,0.141-0.033,0.176-0.041c1.209-0.268,2.434,0.473,2.725,1.674s-0.404,2.406-1.6,2.721     c-0.029,0.006-0.115,0.027-0.145,0.033C73.418,13.882,73.219,13.908,73.023,13.908z" fill="#434B56"/><path d="M70.152,23.607c-0.721,0-1.43-0.342-1.869-0.98c-0.711-1.033-0.451-2.445,0.582-3.154l0.102-0.07     c1.029-0.713,2.443-0.451,3.154,0.58s0.451,2.443-0.582,3.154l-0.102,0.07C71.045,23.478,70.598,23.607,70.152,23.607z" fill="#434B56"/><g><path d="M71.719,91c-0.156,0-0.313-0.018-0.469-0.051c-0.822-0.172-1.48-0.787-1.713-1.594      c-0.43-1.5-0.775-3.512-1.176-5.842c-1.992-11.588-5.326-30.984-25.507-32.439c-1.25-0.09-2.189-1.176-2.1-2.426      c0.092-1.248,1.174-2.199,2.426-2.098C66.902,48.26,70.76,70.693,72.832,82.746c0.002,0.016,0.006,0.033,0.008,0.049      c3.809-6.955,8.836-19.549,7.375-29.521c-0.695-4.746-2.795-8.508-6.244-11.202c-3.037,1.309-7.764,0.967-13.494,0.559      c-8.305-0.598-18.646-1.338-25.646,2.981C20.013,54.756,12.909,69.486,11.329,79.32c-0.025,0.158-0.068,0.313-0.125,0.461      c0.324,1.666,5.73,5.49,7.852,6.17c0.551-0.506,1.465-1.775,2.043-2.576c1.629-2.262,3.035-4.213,5.02-4.455      c10.982-1.309,17.24-8.195,25.161-16.912l1.027-1.129c0.844-0.928,2.277-0.992,3.203-0.15c0.926,0.844,0.994,2.279,0.15,3.205      l-1.023,1.125c-7.826,8.613-15.224,16.752-27.737,18.336c-0.51,0.396-1.51,1.781-2.121,2.631      c-1.756,2.438-3.273,4.543-5.488,4.543c-0.006,0-0.01,0-0.016,0c-2.646-0.012-9.348-4.219-11.637-7.84      c-1.191-1.885-1.105-3.379-0.746-4.381c1.814-10.779,9.563-26.725,25.557-36.596c8.246-5.09,19.396-4.289,28.354-3.646      c4.885,0.35,10.422,0.75,11.803-0.451c0.77-0.668,1.889-0.738,2.738-0.178c5.246,3.471,8.396,8.565,9.359,15.139      c2.252,15.373-8.227,33.955-11.244,37.568C73.023,90.707,72.383,90.998,71.719,91z" fill="#434B56"/><path d="M11.136,72.904c-0.156,0-0.316-0.018-0.477-0.051c-1.225-0.262-2.006-1.469-1.744-2.693      c5.152-24.072,13.176-36.204,25.295-49.024C50.752,3.621,76.568-1.596,85.773,0.525c0.762,0.176,1.381,0.73,1.635,1.471      c2.65,7.682-5.031,27.648-11.355,38.512c-0.631,1.084-2.021,1.449-3.102,0.82c-1.082-0.631-1.449-2.02-0.818-3.102      c6.061-10.412,11.992-26.984,11.252-33.512c-9.432-1.1-32.076,4.924-45.878,19.539c-9.625,10.18-18.713,21.422-24.156,46.856      C13.124,72.174,12.183,72.904,11.136,72.904z" fill="#434B56"/><path d="M24.524,39.074c-0.91,0-1.768-0.553-2.115-1.451c-2.916-7.549-11.654-6.857-16.602-5.771      c-0.834,0.184-1.697-0.117-2.238-0.775s-0.668-1.564-0.328-2.346c1.768-4.061,21.109-17.096,35.93-12.66      c1.199,0.359,1.881,1.625,1.521,2.824c-0.359,1.201-1.625,1.877-2.824,1.521c-8.57-2.564-19.508,2.252-25.715,6.234      c7.07,0.176,12.195,3.406,14.486,9.338c0.451,1.168-0.129,2.48-1.297,2.932C25.073,39.025,24.796,39.074,24.524,39.074z" fill="#434B56"/><path d="M24.522,71.699c-1.127,0-2.105-0.84-2.248-1.986c-0.156-1.244,0.727-2.377,1.969-2.533      c3.852-0.48,14.398-5.043,18.703-10.02c0.818-0.947,2.252-1.051,3.199-0.232c0.948,0.82,1.052,2.252,0.23,3.199      c-4.9,5.668-16.465,10.916-21.57,11.555C24.71,71.693,24.616,71.699,24.522,71.699z" fill="#434B56"/><path d="M43.96,30.509c-0.578,0-1.156-0.219-1.596-0.656c-0.879-0.875-0.9-2.279-0.043-3.17      c0.846-0.902,2.291-0.996,3.209-0.164s1.029,2.215,0.209,3.145c-0.107,0.123-0.168,0.184-0.168,0.184      C45.126,30.289,44.542,30.509,43.96,30.509z" fill="#434B56"/><path d="M52.443,23.214c-0.713,0-1.416-0.336-1.857-0.967c-0.721-1.025-0.471-2.439,0.555-3.158l0.229-0.16      c1.025-0.719,2.439-0.471,3.158,0.555c0.719,1.027,0.469,2.441-0.557,3.16l-0.227,0.158      C53.348,23.082,52.895,23.214,52.443,23.214z M62.32,17.527c-0.867,0-1.699-0.488-2.078-1.324      c-0.518-1.141-0.035-2.473,1.105-2.99l0.047-0.021l0.191-0.088c1.137-0.525,2.484-0.029,3.01,1.107s0.031,2.484-1.105,3.01      l-0.223,0.102C62.961,17.46,62.639,17.527,62.32,17.527z" fill="#434B56"/><path d="M62.32,29.011c-0.725,0-1.438-0.348-1.877-0.992c-0.705-1.033-0.438-2.445,0.596-3.15l0.172-0.119      c1.027-0.715,2.441-0.465,3.158,0.563s0.465,2.441-0.563,3.158l-0.211,0.146C63.205,28.882,62.76,29.011,62.32,29.011z" fill="#434B56"/><path d="M54.57,34.824c-0.725,0-1.438-0.348-1.877-0.992c-0.705-1.033-0.438-2.445,0.596-3.15l0.172-0.119      c1.027-0.715,2.441-0.465,3.158,0.563s0.465,2.441-0.563,3.158l-0.211,0.146C55.455,34.695,55.01,34.824,54.57,34.824z" fill="#434B56"/></g></g></g></g></svg>